# xmcd
#
# Track frame offsets:
#   150
#   14184
#   29909
#   52541
#   74506
#   96922
#   115820
#   136662
#   148127
#   166199
#   178147
#   196677
#   211610
#   225390
#   239110
#   256167
#   275820
#   287913
#   302613
#   317821
#
# Disc length: 4419 seconds
#
# Revision: 0
# Processed by: cddbd v1.5.2PL0 Copyright (c) Steve Scherf et al.
# Submitted via: GXTranscoder 2.0.1939
#
DISCID=29114114
DTITLE=KenyG - Super 20
DYEAR=1999
DGENRE=Blues
TTITLE0=Stranger on a shore
TTITLE1=Greenslaves
TTITLE2=Songbird
TTITLE3=In a sintemental mood
TTITLE4=Forever in love
TTITLE5=Tradewinds
TTITLE6=Jasmine flower
TTITLE7=Miracles
TTITLE8=Silver bells
TTITLE9=A way in a manager
TTITLE10=Midnight motion
TTITLE11=Spring breeze
TTITLE12=Winter wonderland
TTITLE13=White cristmas
TTITLE14=Silent night
TTITLE15=The joy of life
TTITLE16=Last night of the year
TTITLE17=Brahms lullaby
TTITLE18=The wedding song
TTITLE19=What a wonderful world
EXTD=
EXTT0=
EXTT1=
EXTT2=
EXTT3=
EXTT4=
EXTT5=
EXTT6=
EXTT7=
EXTT8=
EXTT9=
EXTT10=
EXTT11=
EXTT12=
EXTT13=
EXTT14=
EXTT15=
EXTT16=
EXTT17=
EXTT18=
EXTT19=
PLAYORDER=
